<?xml version="1.0" encoding="UTF-8"?>
<svg width="5.2895in" height="5.2895in" version="1.1" viewBox="0 0 134.35 134.35" xmlns="http://www.w3.org/2000/svg" xmlns:cc="http://creativecommons.org/ns#" xmlns:dc="http://purl.org/dc/elements/1.1/" xmlns:rdf="http://www.w3.org/1999/02/22-rdf-syntax-ns#">
 <metadata>
  <rdf:RDF>
   <cc:Work rdf:about="">
    <dc:format>image/svg+xml</dc:format>
    <dc:type rdf:resource="http://purl.org/dc/dcmitype/StillImage"/>
    <dc:title/>
   </cc:Work>
  </rdf:RDF>
 </metadata>
 <g transform="translate(-50.1 -43.752)">
  <path transform="matrix(.26458 0 0 .26458 50.1 43.752)" d="m288.14 0.45703-63.857 0.025391-10.875 48.053a212.48 212.48 0 0 0-73.914 30.096l-40.592-28.16-45.135 45.174 26.023 41.246a212.48 212.48 0 0 0-32.133 74.223l-47.201 8.5352 0.025391 63.857 45.42 10.279a212.48 212.48 0 0 0 30.418 77.84l-25.85 37.262 45.174 45.135 37.145-23.436a212.48 212.48 0 0 0 79.191 34.342l7.668 42.404 63.857-0.02734 9.3496-41.318a212.48 212.48 0 0 0 81.07-32.922l34.961 24.254 45.135-45.174-22.859-36.232a212.48 212.48 0 0 0 32.848-79.938l43.322-7.834-0.02539-63.857-43.973-9.9512a212.48 212.48 0 0 0-32.596-77.117l26.58-38.312-45.174-45.135-40.385 25.48a212.48 212.48 0 0 0-74.93-30.729l-8.6895-48.062zm-32.986 151.93a104.49 104.49 0 0 1 104.49 104.49 104.49 104.49 0 0 1-104.49 104.49 104.49 104.49 0 0 1-104.49-104.49 104.49 104.49 0 0 1 104.49-104.49z" stroke="#000" stroke-width=".91346px"/>
 </g>
</svg>
