<?xml version="1.0" encoding="UTF-8"?>
<svg width="212.78mm" height="153.16mm" version="1.1" viewBox="0 0 212.78 153.16" xmlns="http://www.w3.org/2000/svg" xmlns:cc="http://creativecommons.org/ns#" xmlns:dc="http://purl.org/dc/elements/1.1/" xmlns:rdf="http://www.w3.org/1999/02/22-rdf-syntax-ns#">
 <metadata>
  <rdf:RDF>
   <cc:Work rdf:about="">
    <dc:format>image/svg+xml</dc:format>
    <dc:type rdf:resource="http://purl.org/dc/dcmitype/StillImage"/>
    <dc:title/>
   </cc:Work>
  </rdf:RDF>
 </metadata>
 <g transform="translate(13.59 10.045)">
  <rect x="-13.59" y="-10.045" width="212.78" height="153.16" ry="36.656" fill="#c83737" stroke-width="39.304"/>
  <path d="m38.444 10.771v105.23h41.939c-0.9874-1.3863-1.646-3.0226-1.8671-4.7999h-35.273v-95.634h95.634v38.33c1.9434 0.7409 3.6072 2.0376 4.7999 3.6987v-46.827zm10.101 10.37v32.024h85.409v-32.024zm0.7387 38.553v8.5703h52.732v-4.5068c0-1.442 0.28824-2.8138 0.80742-4.0636zm68.522 3.7705c-2.9483 0-5.3219 2.3735-5.3219 5.3219v18.573h-20.782c-2.1161 0-3.8196 1.7034-3.8196 3.8196v14.861c0 2.1161 1.7034 3.8196 3.8196 3.8196h20.782v18.573c0 2.9484 2.3735 5.322 5.3219 5.322h12.061c2.9483 0 5.3227-2.3734 5.3227-5.322v-18.573h20.781c2.1161 1e-5 3.8196-1.7034 3.8196-3.8196v-14.861c0-2.1162-1.7034-3.8196-3.8196-3.8196h-20.781v-18.573c0-2.9484-2.3743-5.3219-5.3227-5.3219zm-69.496 10.078v30.929h30.123v-17.131c0-5.8448 4.7059-10.549 10.551-10.549h13.033v-3.2485z" fill="#fff" stroke-width=".38671"/>
 </g>
</svg>
